<?xml version="1.0" standalone="no"?>
<!DOCTYPE svg PUBLIC "-//W3C//DTD SVG 20010904//EN"
 "http://www.w3.org/TR/2001/REC-SVG-20010904/DTD/svg10.dtd">
<svg version="1.0" xmlns="http://www.w3.org/2000/svg"
 width="95.000000pt" height="94.000000pt" viewBox="0 0 95.000000 94.000000"
 preserveAspectRatio="xMidYMid meet">

<g transform="translate(0.000000,94.000000) scale(0.100000,-0.100000)"
fill="#000000" stroke="none">
<path d="M114 816 l-34 -34 0 -327 0 -327 34 -34 34 -34 331 0 331 0 32 29 33
29 0 337 0 337 -33 29 -32 29 -331 0 -331 0 -34 -34z m540 -149 c-4 -21 -3
-27 6 -22 15 9 50 -23 50 -47 0 -28 -27 -76 -49 -88 -81 -43 -165 48 -121 131
13 23 58 26 67 3 9 -24 23 3 23 45 0 29 2 32 15 21 11 -9 14 -22 9 -43z m-270
4 c-1 -17 2 -28 7 -25 5 2 18 0 29 -6 32 -17 27 -74 -9 -111 -61 -61 -151 -21
-151 67 0 49 61 88 76 49 10 -25 24 -6 24 31 0 24 4 34 13 31 6 -2 11 -18 11
-36z m1 -269 c0 -22 5 -32 15 -32 63 0 49 -105 -18 -139 -76 -39 -156 65 -106
137 19 28 54 29 61 2 8 -32 23 -12 23 31 0 28 4 39 13 36 6 -2 12 -18 12 -35z
m271 -3 c-5 -24 -2 -29 14 -29 21 0 40 -28 40 -59 0 -11 -13 -35 -29 -53 -57
-64 -151 -29 -151 55 0 65 44 99 73 57 14 -21 14 -21 21 2 3 13 6 33 6 45 0
16 4 21 16 16 12 -4 14 -14 10 -34z"/>
</g>
</svg>
